<svg width="512" height="512" viewBox="0 0 512 512" fill="none" xmlns="http://www.w3.org/2000/svg">
<path d="M256 91C165.022 91 91 165.019 91 256C91 346.981 165.022 421 256 421C346.978 421 421 346.981 421 256C421 165.019 346.978 91 256 91ZM170.802 256C170.802 209.021 209.021 170.802 256 170.802C302.979 170.802 341.198 209.021 341.198 256C341.198 302.979 302.979 341.198 256 341.198C209.021 341.198 170.802 302.979 170.802 256ZM355.697 298.499C361.28 285.441 364.383 271.075 364.383 256C364.383 240.925 361.28 226.559 355.697 213.501L382.274 186.921C393.542 207.439 399.968 230.981 399.968 256C399.968 281.019 393.542 304.558 382.271 325.086L355.697 298.499ZM325.086 129.726L298.505 156.306C285.445 150.72 271.078 147.617 256.003 147.617C240.929 147.617 226.562 150.72 213.501 156.306L186.921 129.726C207.442 118.455 230.981 112.028 256 112.028C281.019 112.028 304.558 118.455 325.086 129.726ZM129.729 186.918L156.309 213.498C150.723 226.555 147.621 240.922 147.621 255.997C147.621 271.078 150.723 285.435 156.313 298.499L129.732 325.075C118.455 304.558 112.032 281.019 112.032 256C112.032 230.981 118.455 207.439 129.729 186.918ZM186.918 382.274L213.498 355.697C226.559 361.28 240.922 364.383 255.997 364.383C271.071 364.383 285.435 361.28 298.495 355.697L325.075 382.274C304.558 393.542 281.015 399.968 255.997 399.968C230.981 399.968 207.442 393.545 186.918 382.274Z" fill="#279EFF"/>
</svg>
