<svg width="621" height="134" viewBox="0 0 621 134" fill="none" xmlns="http://www.w3.org/2000/svg">
<path d="M157.844 89.625C152.885 89.625 148.708 88.4792 145.312 86.1875C141.917 83.875 139.885 80.6458 139.219 76.5L148.906 74.2812C149.219 76.7604 150.208 78.6667 151.875 80C153.562 81.3125 155.677 81.9688 158.219 81.9688C160.24 81.9688 161.885 81.5104 163.156 80.5938C164.427 79.6562 165.052 78.2812 165.031 76.4688C165.031 75.1979 164.5 74.0833 163.438 73.125C162.375 72.1667 161.312 71.4896 160.25 71.0938C159.208 70.6771 157.521 70.1146 155.188 69.4062C154.875 69.3021 154.646 69.2292 154.5 69.1875C153.312 68.8125 152.354 68.5 151.625 68.25C150.896 68 149.99 67.6562 148.906 67.2188C147.844 66.7604 146.969 66.3229 146.281 65.9062C145.615 65.4688 144.896 64.9271 144.125 64.2812C143.354 63.6146 142.75 62.9167 142.312 62.1875C141.875 61.4583 141.51 60.5938 141.219 59.5938C140.927 58.5938 140.781 57.5208 140.781 56.375C140.781 53.6458 141.479 51.2812 142.875 49.2812C144.292 47.2604 146.188 45.75 148.562 44.75C150.958 43.7292 153.677 43.2188 156.719 43.2188C158.781 43.2188 160.74 43.4375 162.594 43.875C164.469 44.3125 166.229 44.9896 167.875 45.9062C169.521 46.8021 170.917 48.0417 172.062 49.625C173.229 51.1875 174.031 53.0104 174.469 55.0938L165.406 57.3438C164.594 53.0312 161.885 50.875 157.281 50.875C155.24 50.875 153.562 51.3125 152.25 52.1875C150.938 53.0625 150.281 54.3854 150.281 56.1562C150.281 57.8021 151.375 59.1354 153.562 60.1562C154.583 60.6562 156.677 61.375 159.844 62.3125C161.073 62.6875 162.073 63 162.844 63.25C163.615 63.5 164.583 63.8646 165.75 64.3438C166.917 64.8229 167.865 65.2917 168.594 65.75C169.323 66.1875 170.115 66.7604 170.969 67.4688C171.823 68.1771 172.49 68.9271 172.969 69.7188C173.469 70.5104 173.885 71.4479 174.219 72.5312C174.552 73.5938 174.719 74.75 174.719 76C174.719 77.875 174.417 79.5729 173.812 81.0938C173.208 82.6146 172.375 83.8958 171.312 84.9375C170.271 85.9792 169.031 86.8646 167.594 87.5938C166.156 88.3021 164.625 88.8125 163 89.125C161.375 89.4583 159.656 89.625 157.844 89.625ZM203.5 56.875H212.5V89H203.969L203.75 85.125C201.375 88.125 197.969 89.625 193.531 89.625C189.677 89.625 186.719 88.6667 184.656 86.75C182.594 84.8125 181.562 82.0625 181.562 78.5V56.875H190.594V76.5625C190.594 78.5625 191.125 80.0312 192.188 80.9688C193.271 81.9062 194.667 82.375 196.375 82.375C198.458 82.375 200.156 81.7708 201.469 80.5625C202.802 79.3333 203.479 77.3438 203.5 74.5938V56.875ZM240.688 56.25C242.812 56.25 244.812 56.6354 246.688 57.4062C248.562 58.1771 250.198 59.2604 251.594 60.6562C253.01 62.0521 254.125 63.8229 254.938 65.9688C255.75 68.0938 256.156 70.4375 256.156 73C256.156 75.5625 255.75 77.9167 254.938 80.0625C254.125 82.1875 253.01 83.9479 251.594 85.3438C250.198 86.7396 248.562 87.8229 246.688 88.5938C244.812 89.3646 242.812 89.75 240.688 89.75C238.562 89.75 236.625 89.3542 234.875 88.5625C233.125 87.7708 231.781 86.6458 230.844 85.1875V104.625H221.844V56.875H230.375L230.625 61.1875C231.5 59.625 232.833 58.4167 234.625 57.5625C236.438 56.6875 238.458 56.25 240.688 56.25ZM238.656 82.2812C241.094 82.2812 243.115 81.4479 244.719 79.7812C246.344 78.0938 247.156 75.8333 247.156 73C247.156 70.1667 246.344 67.9167 244.719 66.25C243.115 64.5625 241.094 63.7188 238.656 63.7188C236.198 63.7188 234.156 64.5729 232.531 66.2812C230.906 67.9896 230.094 70.2292 230.094 73C230.094 75.7708 230.906 78.0104 232.531 79.7188C234.156 81.4271 236.198 82.2812 238.656 82.2812ZM281.812 56.25C283.938 56.25 285.938 56.6354 287.812 57.4062C289.688 58.1771 291.323 59.2604 292.719 60.6562C294.135 62.0521 295.25 63.8229 296.062 65.9688C296.875 68.0938 297.281 70.4375 297.281 73C297.281 75.5625 296.875 77.9167 296.062 80.0625C295.25 82.1875 294.135 83.9479 292.719 85.3438C291.323 86.7396 289.688 87.8229 287.812 88.5938C285.938 89.3646 283.938 89.75 281.812 89.75C279.688 89.75 277.75 89.3542 276 88.5625C274.25 87.7708 272.906 86.6458 271.969 85.1875V104.625H262.969V56.875H271.5L271.75 61.1875C272.625 59.625 273.958 58.4167 275.75 57.5625C277.562 56.6875 279.583 56.25 281.812 56.25ZM279.781 82.2812C282.219 82.2812 284.24 81.4479 285.844 79.7812C287.469 78.0938 288.281 75.8333 288.281 73C288.281 70.1667 287.469 67.9167 285.844 66.25C284.24 64.5625 282.219 63.7188 279.781 63.7188C277.323 63.7188 275.281 64.5729 273.656 66.2812C272.031 67.9896 271.219 70.2292 271.219 73C271.219 75.7708 272.031 78.0104 273.656 79.7188C275.281 81.4271 277.323 82.2812 279.781 82.2812ZM319.062 89.625C315.646 89.625 312.615 88.9688 309.969 87.6562C307.323 86.3438 305.24 84.4167 303.719 81.875C302.219 79.3333 301.469 76.3438 301.469 72.9062C301.469 67.7604 303.094 63.6979 306.344 60.7188C309.594 57.7396 313.833 56.25 319.062 56.25C324.312 56.25 328.562 57.7396 331.812 60.7188C335.062 63.6979 336.688 67.7604 336.688 72.9062C336.688 78.0729 335.062 82.1562 331.812 85.1562C328.562 88.1354 324.312 89.625 319.062 89.625ZM318.969 82.4688C321.594 82.4688 323.708 81.5938 325.312 79.8438C326.938 78.0938 327.75 75.7812 327.75 72.9062C327.75 70.0312 326.938 67.7188 325.312 65.9688C323.708 64.2188 321.594 63.3438 318.969 63.3438C316.448 63.3438 314.385 64.2292 312.781 66C311.198 67.75 310.406 70.0521 310.406 72.9062C310.406 75.7604 311.198 78.0729 312.781 79.8438C314.385 81.5938 316.448 82.4688 318.969 82.4688ZM352.031 61.9688C352.885 60.4688 354.292 59.1875 356.25 58.125C358.208 57.0417 360.302 56.5 362.531 56.5V64.5312C358.99 64.5312 356.427 65.1771 354.844 66.4688C353.26 67.7604 352.469 70.0521 352.469 73.3438V89H343.406V56.875H352.031V61.9688ZM381.688 89C378.562 89 376.146 88.1354 374.438 86.4062C372.729 84.6562 371.875 82.1771 371.875 78.9688V63.7812H365.562V56.875H367.594C369.406 56.875 370.74 56.4271 371.594 55.5312C372.448 54.6354 372.875 53.0417 372.875 50.75V46.5H381V56.875H387.625V63.7812H381V78C381 80.7708 382.24 82.1562 384.719 82.1562H387.625V89H381.688ZM415.781 89.625C411.365 89.625 407.406 88.6875 403.906 86.8125C400.427 84.9167 397.688 82.1979 395.688 78.6562C393.688 75.1146 392.688 71.0312 392.688 66.4062C392.688 61.7604 393.688 57.6771 395.688 54.1562C397.688 50.6146 400.427 47.9062 403.906 46.0312C407.406 44.1562 411.365 43.2188 415.781 43.2188C420.198 43.2188 424.146 44.1562 427.625 46.0312C431.104 47.9062 433.844 50.6146 435.844 54.1562C437.844 57.6771 438.844 61.7604 438.844 66.4062C438.844 71.0312 437.844 75.1146 435.844 78.6562C433.844 82.1979 431.094 84.9167 427.594 86.8125C424.115 88.6875 420.177 89.625 415.781 89.625ZM405.906 77.0938C408.49 79.7188 411.781 81.0312 415.781 81.0312C419.781 81.0312 423.073 79.7188 425.656 77.0938C428.24 74.4479 429.531 70.8854 429.531 66.4062C429.531 61.9479 428.24 58.4062 425.656 55.7812C423.073 53.1562 419.781 51.8438 415.781 51.8438C411.781 51.8438 408.49 53.1562 405.906 55.7812C403.323 58.4062 402.031 61.9479 402.031 66.4062C402.031 70.8854 403.323 74.4479 405.906 77.0938ZM465.25 56.25C469.104 56.25 472.062 57.2188 474.125 59.1562C476.188 61.0729 477.219 63.8125 477.219 67.375V89H468.188V69.3125C468.188 67.2917 467.646 65.8125 466.562 64.875C465.5 63.9375 464.125 63.4688 462.438 63.4688C461.458 63.4688 460.562 63.6042 459.75 63.875C458.938 64.1458 458.188 64.5729 457.5 65.1562C456.812 65.7188 456.271 66.5208 455.875 67.5625C455.5 68.6042 455.302 69.8438 455.281 71.2812V89H446.281V56.875H455.281V60.4375C457.656 57.6458 460.979 56.25 465.25 56.25ZM502.156 89.625C497.198 89.625 493.021 88.4792 489.625 86.1875C486.229 83.875 484.198 80.6458 483.531 76.5L493.219 74.2812C493.531 76.7604 494.521 78.6667 496.188 80C497.875 81.3125 499.99 81.9688 502.531 81.9688C504.552 81.9688 506.198 81.5104 507.469 80.5938C508.74 79.6562 509.365 78.2812 509.344 76.4688C509.344 75.1979 508.812 74.0833 507.75 73.125C506.688 72.1667 505.625 71.4896 504.562 71.0938C503.521 70.6771 501.833 70.1146 499.5 69.4062C499.188 69.3021 498.958 69.2292 498.812 69.1875C497.625 68.8125 496.667 68.5 495.938 68.25C495.208 68 494.302 67.6562 493.219 67.2188C492.156 66.7604 491.281 66.3229 490.594 65.9062C489.927 65.4688 489.208 64.9271 488.438 64.2812C487.667 63.6146 487.062 62.9167 486.625 62.1875C486.188 61.4583 485.823 60.5938 485.531 59.5938C485.24 58.5938 485.094 57.5208 485.094 56.375C485.094 53.6458 485.792 51.2812 487.188 49.2812C488.604 47.2604 490.5 45.75 492.875 44.75C495.271 43.7292 497.99 43.2188 501.031 43.2188C503.094 43.2188 505.052 43.4375 506.906 43.875C508.781 44.3125 510.542 44.9896 512.188 45.9062C513.833 46.8021 515.229 48.0417 516.375 49.625C517.542 51.1875 518.344 53.0104 518.781 55.0938L509.719 57.3438C508.906 53.0312 506.198 50.875 501.594 50.875C499.552 50.875 497.875 51.3125 496.562 52.1875C495.25 53.0625 494.594 54.3854 494.594 56.1562C494.594 57.8021 495.688 59.1354 497.875 60.1562C498.896 60.6562 500.99 61.375 504.156 62.3125C505.385 62.6875 506.385 63 507.156 63.25C507.927 63.5 508.896 63.8646 510.062 64.3438C511.229 64.8229 512.177 65.2917 512.906 65.75C513.635 66.1875 514.427 66.7604 515.281 67.4688C516.135 68.1771 516.802 68.9271 517.281 69.7188C517.781 70.5104 518.198 71.4479 518.531 72.5312C518.865 73.5938 519.031 74.75 519.031 76C519.031 77.875 518.729 79.5729 518.125 81.0938C517.521 82.6146 516.688 83.8958 515.625 84.9375C514.583 85.9792 513.344 86.8646 511.906 87.5938C510.469 88.3021 508.938 88.8125 507.312 89.125C505.688 89.4583 503.969 89.625 502.156 89.625ZM531.125 52.0625C529.688 52.0625 528.458 51.5625 527.438 50.5625C526.417 49.5417 525.906 48.3125 525.906 46.875C525.906 45.4583 526.417 44.25 527.438 43.25C528.479 42.2292 529.708 41.7188 531.125 41.7188C532.521 41.7188 533.729 42.2292 534.75 43.25C535.771 44.25 536.281 45.4583 536.281 46.875C536.281 48.3125 535.771 49.5417 534.75 50.5625C533.729 51.5625 532.521 52.0625 531.125 52.0625ZM526.531 89V56.875H535.594V89H526.531ZM556.875 89C553.75 89 551.333 88.1354 549.625 86.4062C547.917 84.6562 547.062 82.1771 547.062 78.9688V63.7812H540.75V56.875H542.781C544.594 56.875 545.927 56.4271 546.781 55.5312C547.635 54.6354 548.062 53.0417 548.062 50.75V46.5H556.188V56.875H562.812V63.7812H556.188V78C556.188 80.7708 557.427 82.1562 559.906 82.1562H562.812V89H556.875ZM599.875 72.4688L599.781 74.625H575.969C576.156 77.1875 577.01 79.1458 578.531 80.5C580.052 81.8542 581.938 82.5312 584.188 82.5312C585.812 82.5312 587.219 82.1667 588.406 81.4375C589.615 80.6875 590.521 79.6042 591.125 78.1875L599.375 79.4062C598.312 82.6354 596.438 85.1458 593.75 86.9375C591.062 88.7292 587.896 89.625 584.25 89.625C579 89.625 574.823 88.1562 571.719 85.2188C568.635 82.2604 567.094 78.1667 567.094 72.9375C567.094 67.75 568.646 63.6667 571.75 60.6875C574.854 57.6875 578.927 56.1875 583.969 56.1875C588.76 56.1875 592.604 57.5521 595.5 60.2812C598.396 63.0104 599.854 67.0729 599.875 72.4688ZM584.031 62.5625C579.656 62.5625 577.052 64.625 576.219 68.75H590.969C590.74 66.75 590 65.2188 588.75 64.1562C587.5 63.0938 585.927 62.5625 584.031 62.5625Z" fill="#279EFF"/>
<path d="M70 17C42.4309 17 20 39.4299 20 67C20 94.5701 42.4309 117 70 117C97.5691 117 120 94.5701 120 67C120 39.4299 97.5691 17 70 17ZM44.1825 67C44.1825 52.7639 55.7639 41.1825 70 41.1825C84.2361 41.1825 95.8175 52.7639 95.8175 67C95.8175 81.2361 84.2361 92.8175 70 92.8175C55.7639 92.8175 44.1825 81.2361 44.1825 67ZM100.211 79.8783C101.903 75.9216 102.843 71.568 102.843 67C102.843 62.432 101.903 58.0783 100.211 54.1216L108.265 46.067C111.679 52.2845 113.627 59.4186 113.627 67C113.627 74.5814 111.679 81.7144 108.264 87.935L100.211 79.8783ZM90.935 28.7351L82.8804 36.7897C78.9227 35.0969 74.5691 34.1567 70.001 34.1567C65.433 34.1567 61.0794 35.0969 57.1216 36.7897L49.067 28.7351C55.2856 25.3196 62.4186 23.3722 70 23.3722C77.5814 23.3722 84.7144 25.3196 90.935 28.7351ZM31.7361 46.066L39.7907 54.1206C38.0979 58.0773 37.1577 62.4309 37.1577 66.999C37.1577 71.5691 38.0979 75.9196 39.7918 79.8783L31.7371 87.932C28.3196 81.7144 26.3732 74.5814 26.3732 67C26.3732 59.4186 28.3196 52.2845 31.7361 46.066ZM49.066 105.265L57.1206 97.2113C61.0783 98.9031 65.4309 99.8433 69.999 99.8433C74.567 99.8433 78.9196 98.9031 82.8773 97.2113L90.932 105.265C84.7144 108.679 77.5804 110.627 69.999 110.627C62.4186 110.627 55.2856 108.68 49.066 105.265Z" fill="#279EFF"/>
</svg>
