<svg width="60" height="60" viewBox="0 0 60 60" fill="none" xmlns="http://www.w3.org/2000/svg">
<g clip-path="url(#clip0)">
<path d="M30 1.5C13.458 1.5 -4.14439e-05 13.612 -4.14439e-05 28.5C-4.14439e-05 33.705 1.64696 38.746 4.76796 43.104C4.17696 49.641 2.59296 54.494 0.292959 56.793C-0.0110414 57.097 -0.0870415 57.562 0.104959 57.946C0.275959 58.289 0.624959 58.5 0.999959 58.5C1.04596 58.5 1.09296 58.497 1.13996 58.49C1.54496 58.433 10.953 57.078 17.757 53.152C21.622 54.711 25.738 55.5 30 55.5C46.542 55.5 60 43.388 60 28.5C60 13.612 46.542 1.5 30 1.5Z" fill="#279EFF"/>
</g>
<defs>
<clipPath id="clip0">
<rect width="60" height="60" fill="white"/>
</clipPath>
</defs>
</svg>
