<svg width="60" height="60" viewBox="0 0 60 60" fill="none" xmlns="http://www.w3.org/2000/svg">
<g clip-path="url(#clip0)">
<path d="M54.7244 13.5181C51.8113 13.5181 49.4497 15.8797 49.4497 18.7928C49.4497 19.5236 49.5984 20.2197 49.8672 20.8526L38.8178 31.9021C38.185 31.6333 37.4889 31.4844 36.7579 31.4844C36.027 31.4844 35.3308 31.6333 34.698 31.9021L28.0976 25.3017C28.3664 24.6688 28.5151 23.9727 28.5151 23.2418C28.5151 20.3287 26.1535 17.967 23.2404 17.967C20.3273 17.967 17.9657 20.3287 17.9657 23.2418C17.9657 23.9726 18.1144 24.6687 18.3831 25.3015L7.33366 36.3509C6.70082 36.0822 6.00469 35.9333 5.27375 35.9333C2.36065 35.9333 -0.000976562 38.2949 -0.000976562 41.208C-0.000976562 44.1211 2.36065 46.4827 5.27375 46.4827C8.18684 46.4827 10.5485 44.1211 10.5485 41.208C10.5485 40.4772 10.3997 39.7811 10.131 39.1482L21.1805 28.0989C21.8133 28.3676 22.5094 28.5164 23.2404 28.5164C23.9712 28.5164 24.6673 28.3676 25.3002 28.0989L31.9007 34.6994C31.6319 35.3322 31.4832 36.0284 31.4832 36.7592C31.4832 39.6723 33.8448 42.0339 36.7579 42.0339C39.671 42.0339 42.0326 39.6723 42.0326 36.7592C42.0326 36.0284 41.8839 35.3322 41.6151 34.6994L52.6645 23.6499C53.2973 23.9186 53.9935 24.0674 54.7244 24.0674C57.6375 24.0674 59.9991 21.7058 59.9991 18.7927C59.9991 15.8796 57.6375 13.5181 54.7244 13.5181Z" fill="#279EFF"/>
</g>
<defs>
<clipPath id="clip0">
<rect width="60" height="60" fill="white"/>
</clipPath>
</defs>
</svg>
