<svg width="60" height="60" viewBox="0 0 60 60" fill="none" xmlns="http://www.w3.org/2000/svg">
<path d="M51.5217 40.7946V29.3479C51.5207 19.2657 44.5806 10.8291 35.2232 8.49141C35.6229 7.69875 35.8695 6.81633 35.8695 5.86957C35.8695 2.63297 33.2365 0 29.9999 0C26.7633 0 24.1303 2.63297 24.1303 5.86957C24.1303 6.81645 24.3769 7.69863 24.7766 8.49141C15.4192 10.8291 8.47913 19.2657 8.47807 29.3479V40.7946C6.20346 41.6033 4.56588 43.7516 4.56506 46.3044C4.56624 49.5468 7.19229 52.1726 10.4346 52.1738H20.4141C21.3208 56.6392 25.2662 59.9989 29.9999 60C34.7333 59.9989 38.6789 56.6392 39.5857 52.1738H49.5652C52.8075 52.1726 55.4336 49.5468 55.4348 46.3044C55.4338 43.7516 53.7964 41.6033 51.5217 40.7946ZM29.9999 3.91301C31.0776 3.91301 31.9565 4.79191 31.9565 5.86957C31.9565 6.94723 31.0776 7.82613 29.9999 7.82613C28.9223 7.82613 28.0433 6.94723 28.0433 5.86957C28.0433 4.79191 28.9224 3.91301 29.9999 3.91301ZM20.2173 29.3479C20.2173 30.4283 19.3414 31.3044 18.2608 31.3044C17.1802 31.3044 16.3042 30.4284 16.3042 29.3479C16.3078 21.7902 22.4423 15.6555 29.9999 15.6521C31.0804 15.6521 31.9565 16.5279 31.9565 17.6087C31.9565 18.6892 31.0805 19.5653 29.9999 19.5653V19.565C24.6108 19.5748 20.2271 23.9586 20.2173 29.3479ZM29.9999 56.0871C27.4487 56.0824 25.3026 54.4465 24.4923 52.1738H35.5076C34.6973 54.4465 32.5511 56.0824 29.9999 56.0871Z" fill="#279EFF"/>
</svg>
