<svg width="60" height="60" viewBox="0 0 60 60" fill="none" xmlns="http://www.w3.org/2000/svg">
<path d="M41.0205 6.12256H33.6736V18.3675H41.0205V6.12256Z" fill="#279EFF"/>
<path d="M48.8743 0H0.612305V60H59.3878V10.5135L48.8743 0ZM12.8572 2.44898H44.6939V22.0408H12.8572V2.44898ZM48.3674 57.551H10.4082V31.8367H48.3674V57.551Z" fill="#279EFF"/>
<path d="M16.5306 39.1838H25.1021C25.7792 39.1838 26.3266 38.6365 26.3266 37.9594C26.3266 37.2822 25.7792 36.7349 25.1021 36.7349H16.5306C15.8535 36.7349 15.3062 37.2822 15.3062 37.9594C15.3062 38.6365 15.8535 39.1838 16.5306 39.1838Z" fill="#279EFF"/>
<path d="M16.5306 44.0818H28.7755C29.4527 44.0818 30 43.5344 30 42.8573C30 42.1802 29.4527 41.6328 28.7755 41.6328H16.5306C15.8535 41.6328 15.3062 42.1802 15.3062 42.8573C15.3062 43.5344 15.8535 44.0818 16.5306 44.0818Z" fill="#279EFF"/>
<path d="M32.4491 44.0816C32.7797 44.0816 33.0858 43.9469 33.3185 43.7265C33.5389 43.4939 33.6736 43.1755 33.6736 42.8571C33.6736 42.5388 33.5389 42.2192 33.3185 41.9877C32.8654 41.5347 32.045 41.5347 31.592 41.9877C31.3593 42.2192 31.2246 42.5253 31.2246 42.8571C31.2246 43.1877 31.3581 43.4939 31.5797 43.7265C31.8111 43.9469 32.1173 44.0816 32.4491 44.0816Z" fill="#279EFF"/>
</svg>
