<svg width="60" height="60" viewBox="0 0 60 60" fill="none" xmlns="http://www.w3.org/2000/svg">
<path d="M30 1.73438C27.032 1.73438 24.6173 4.14902 24.6173 7.11703C24.6173 10.085 27.0321 12.4997 30 12.4997C32.9679 12.4997 35.3826 10.085 35.3826 7.11703C35.3826 4.14902 32.968 1.73438 30 1.73438Z" fill="#279EFF"/>
<path d="M38.7083 21.3698L36.4242 14.5175C36.1578 13.7186 35.4103 13.1797 34.5682 13.1797H25.4316C24.5894 13.1797 23.842 13.7185 23.5756 14.5175L21.2915 21.3698C20.8694 22.6361 21.8141 23.9449 23.1475 23.9449H36.8523C38.1873 23.9449 39.1299 22.6348 38.7083 21.3698Z" fill="#279EFF"/>
<path d="M8.81002 18.8945C5.84202 18.8945 3.42737 21.3092 3.42737 24.2772C3.42737 27.2452 5.84213 29.6598 8.81002 29.6598C11.7779 29.6598 14.1927 27.2452 14.1927 24.2772C14.1927 21.3092 11.778 18.8945 8.81002 18.8945Z" fill="#279EFF"/>
<path d="M17.5187 38.5303L15.2345 31.678C14.9681 30.8792 14.2206 30.3403 13.3785 30.3403H4.24182C3.3996 30.3403 2.65218 30.8792 2.38581 31.6781L0.101825 38.5303C-0.320285 39.7968 0.624481 41.1054 1.95784 41.1054H15.6626C16.9974 41.1054 17.9402 39.7954 17.5187 38.5303Z" fill="#279EFF"/>
<path d="M30.0001 36.0557C27.0321 36.0557 24.6174 38.4703 24.6174 41.4383C24.6174 44.4062 27.0321 46.821 30.0001 46.821C32.9681 46.821 35.3828 44.4063 35.3828 41.4383C35.3828 38.4703 32.9681 36.0557 30.0001 36.0557Z" fill="#279EFF"/>
<path d="M38.7086 55.6911L36.4245 48.8388C36.1581 48.0399 35.4105 47.501 34.5684 47.501H25.4319C24.5897 47.501 23.8422 48.0398 23.5759 48.8388L21.2918 55.6911C20.8697 56.9575 21.8144 58.2662 23.1478 58.2662H36.8525C38.1875 58.2661 39.1302 56.9561 38.7086 55.6911Z" fill="#279EFF"/>
<path d="M22.231 9.39459C21.7608 8.4217 20.5908 8.01424 19.6181 8.48451C16.5872 9.94948 13.8398 12.0931 11.6729 14.6834C10.9796 15.5123 11.0895 16.7461 11.9183 17.4395C12.7469 18.1328 13.9808 18.0231 14.6743 17.1941C16.4877 15.0263 18.7861 13.2327 21.321 12.0075C22.2937 11.5373 22.7013 10.3675 22.231 9.39459Z" fill="#279EFF"/>
<path d="M51.1899 18.895C48.2219 18.895 45.8073 21.3098 45.8073 24.2777C45.8073 27.2456 48.2219 29.6603 51.1899 29.6603C54.1579 29.6603 56.5726 27.2457 56.5726 24.2777C56.5726 21.3097 54.1579 18.895 51.1899 18.895Z" fill="#279EFF"/>
<path d="M59.8983 38.5304L57.6142 31.6781C57.3479 30.8793 56.6003 30.3403 55.7582 30.3403H46.6218C45.7796 30.3403 45.0322 30.8792 44.7658 31.678L42.4816 38.5303C42.0595 39.7968 43.0042 41.1055 44.3376 41.1055H58.0422C59.3771 41.1055 60.3199 39.7955 59.8983 38.5304Z" fill="#279EFF"/>
<path d="M48.327 14.6838C46.1601 12.0934 43.4128 9.94996 40.3818 8.48488C39.4088 8.01484 38.2392 8.42219 37.7689 9.39496C37.2989 10.3677 37.7063 11.5375 38.679 12.0078C41.2139 13.233 43.5123 15.0265 45.3258 17.1944C46.0193 18.0232 47.253 18.1328 48.0818 17.4398C48.9105 16.7464 49.0204 15.5125 48.327 14.6838Z" fill="#279EFF"/>
<path d="M48.0817 42.5604C47.2531 41.8671 46.0191 41.9768 45.3257 42.8058C43.5122 44.9736 41.2138 46.7672 38.6789 47.9924C37.7062 48.4625 37.2986 49.6324 37.769 50.6053C38.2393 51.5784 39.4093 51.9854 40.3819 51.5154C43.4127 50.0504 46.1602 47.9068 48.3271 45.3165C49.0204 44.4877 48.9104 43.2538 48.0817 42.5604Z" fill="#279EFF"/>
<path d="M21.3209 47.9923C18.7861 46.767 16.4877 44.9736 14.6742 42.8057C13.9807 41.9768 12.7469 41.8671 11.9182 42.5603C11.0894 43.2537 10.9796 44.4876 11.673 45.3163C13.8399 47.9066 16.5873 50.0501 19.6182 51.5152C20.5916 51.9857 21.761 51.5775 22.231 50.6052C22.7011 49.6323 22.2936 48.4626 21.3209 47.9923Z" fill="#279EFF"/>
</svg>
